<svg xmlns="http://www.w3.org/2000/svg" width="256" height="256" viewBox="0 0 256 256" role="img" aria-label="zlib for OpenVMS">
<defs>
<linearGradient id="bg" x1="0" y1="0" x2="1" y2="1">
  <stop offset="0" stop-color="#0d1824"/><stop offset="1" stop-color="#16323f"/></linearGradient>
<linearGradient id="titlebar" x1="0" y1="0" x2="0" y2="1">
  <stop offset="0" stop-color="#5a82ad"/><stop offset="1" stop-color="#2d5079"/></linearGradient>
<radialGradient id="glow" cx="0.45" cy="0.45" r="0.75">
  <stop offset="0" stop-color="#5fd7ff" stop-opacity="0.10"/><stop offset="1" stop-color="#5fd7ff" stop-opacity="0"/></radialGradient>
<pattern id="scan" width="4" height="4" patternUnits="userSpaceOnUse">
  <rect width="4" height="1.4" fill="#000" fill-opacity="0.28"/></pattern>
<pattern id="grid" width="32" height="32" patternUnits="userSpaceOnUse">
  <path d="M32,0 H0 V32" stroke="#ffffff" stroke-opacity="0.035" fill="none"/></pattern>
<filter id="phosphor" x="-5%" y="-20%" width="110%" height="140%">
  <feGaussianBlur stdDeviation="1.4" result="b"/>
  <feMerge><feMergeNode in="b"/><feMergeNode in="SourceGraphic"/></feMerge></filter>
<filter id="soft" x="-10%" y="-10%" width="120%" height="130%">
  <feDropShadow dx="0" dy="6" stdDeviation="8" flood-color="#000" flood-opacity="0.45"/></filter>
</defs>
<rect x="14" y="10" width="228" height="196" rx="22" fill="#d9d2bf"/>
<rect x="14" y="10" width="228" height="196" rx="22" fill="none" stroke="#a69d86" stroke-width="3"/>
<rect x="30" y="24" width="196" height="160" rx="14" fill="#2a2a26"/>
<rect x="38" y="31" width="180" height="146" rx="10" fill="#021018"/>
<g filter="url(#soft)"><g transform="translate(70,38) scale(0.25217)"><rect width="460" height="460" rx="31.5" fill="#12806e"/><text x="44" y="250" font-family="'Arial Black','Helvetica Neue','DejaVu Sans',Arial,sans-serif" font-weight="900" font-size="196" fill="#fafafa" textLength="372" lengthAdjust="spacingAndGlyphs">zlib</text><polygon points="60,312 200,362 60,412" fill="#bff3e6"/><polygon points="400,312 260,362 400,412" fill="#bff3e6"/><rect x="222" y="318" width="16" height="88" rx="4" fill="#fafafa"/></g></g>
<text x="52" y="172" font-family="'DejaVu Sans Mono','Liberation Mono','Menlo','Consolas','Courier New',monospace" font-size="16" font-weight="bold" fill="#5fd7ff" filter="url(#phosphor)">$ zlib█</text>
<rect x="38" y="31" width="180" height="146" rx="10" fill="url(#scan)"/>
<rect x="96" y="188" width="64" height="10" rx="2" fill="#4a463c"/>
<text x="128" y="196.5" text-anchor="middle" font-family="'DejaVu Sans','Liberation Sans','Helvetica Neue',Arial,sans-serif" font-size="8" font-weight="bold" fill="#e9e4d6" letter-spacing="1.5">OpenVMS</text>
<path d="M78,206 L70,240 H186 L178,206 Z" fill="#c9c1ac"/>
<rect x="56" y="236" width="144" height="12" rx="5" fill="#b3aa93"/>
</svg>